<?xml version="1.0" encoding="utf-8"?>
<!-- Generator: Adobe Illustrator 18.1.1, SVG Export Plug-In . SVG Version: 6.00 Build 0)  -->
<!DOCTYPE svg PUBLIC "-//W3C//DTD SVG 1.1//EN" "http://www.w3.org/Graphics/SVG/1.1/DTD/svg11.dtd" [
	<!ENTITY ns_extend "http://ns.adobe.com/Extensibility/1.0/">
	<!ENTITY ns_ai "http://ns.adobe.com/AdobeIllustrator/10.0/">
	<!ENTITY ns_graphs "http://ns.adobe.com/Graphs/1.0/">
	<!ENTITY ns_vars "http://ns.adobe.com/Variables/1.0/">
	<!ENTITY ns_imrep "http://ns.adobe.com/ImageReplacement/1.0/">
	<!ENTITY ns_sfw "http://ns.adobe.com/SaveForWeb/1.0/">
	<!ENTITY ns_custom "http://ns.adobe.com/GenericCustomNamespace/1.0/">
	<!ENTITY ns_adobe_xpath "http://ns.adobe.com/XPath/1.0/">
]>
<svg version="1.1" id="Layer_1" xmlns:x="&ns_extend;" xmlns:i="&ns_ai;" xmlns:graph="&ns_graphs;"
	 xmlns="http://www.w3.org/2000/svg" xmlns:xlink="http://www.w3.org/1999/xlink" x="0px" y="0px"
	 viewBox="0 0 37.3 38.2" enable-background="new 0 0 37.3 38.2" xml:space="preserve" preserveAspectRatio="none">
<metadata>
	<sfw  xmlns="&ns_sfw;">
		<slices></slices>
		<sliceSourceBounds  height="331.9" width="942.6" bottomLeftOrigin="true" x="226.7" y="-686.8"></sliceSourceBounds>
	</sfw>
</metadata>
<g>
	<path fill="#9F9FA1" d="M37.3,11.5H0v-8h37.3V11.5z M37.3,22.2H0v-8h37.3V22.2z M37.3,32.8H0v-8h37.3V32.8z M24,8.9V6.2H2.7v2.7H24
		z M24,19.5v-2.7H2.7v2.7H24z M24,30.2v-2.7H2.7v2.7H24z M33.3,5.5c-1.1,0-2,0.9-2,2s0.9,2,2,2s2-0.9,2-2S34.4,5.5,33.3,5.5z
		 M33.3,16.2c-1.1,0-2,0.9-2,2s0.9,2,2,2s2-0.9,2-2S34.4,16.2,33.3,16.2z M33.3,26.8c-1.1,0-2,0.9-2,2c0,1.1,0.9,2,2,2s2-0.9,2-2
		C35.3,27.7,34.4,26.8,33.3,26.8z"/>
</g>
</svg>
